<svg width="64" height="64" fill="none" viewBox="0 0 64 64" xmlns="http://www.w3.org/2000/svg">
<path d="M0 32C0 14.3269 14.3269 0 32 0C49.6731 0 64 14.3269 64 32C64 49.6731 49.6731 64 32 64C14.3269 64 0 49.6731 0 32Z" fill="#c9ebeb"/>
<path d="M25.1802 19.0801C25.1149 19.0145 25.0373 18.9625 24.9518 18.927C24.8664 18.8915 24.7747 18.8733 24.6822 18.8733C24.5897 18.8733 24.498 18.8915 24.4126 18.927C24.3271 18.9625 24.2495 19.0145 24.1841 19.0801L20.4529 22.7897L19.1228 21.4936C19.0575 21.428 18.9799 21.376 18.8944 21.3405C18.8089 21.305 18.7173 21.2868 18.6248 21.2868C18.5322 21.2868 18.4406 21.305 18.3551 21.3405C18.2697 21.376 18.192 21.428 18.1267 21.4936L17.2068 22.4147C17.1413 22.48 17.0892 22.5576 17.0538 22.6431C17.0183 22.7285 17 22.8202 17 22.9127C17 23.0052 17.0183 23.0969 17.0538 23.1823C17.0892 23.2678 17.1413 23.3454 17.2068 23.4107L19.9953 26.1881C20.1345 26.3204 20.3192 26.3942 20.5112 26.3942C20.7032 26.3942 20.8879 26.3204 21.0271 26.1881L21.9406 25.2729L26.1711 21.043C26.3029 20.9111 26.3774 20.7325 26.3783 20.546C26.3793 20.3595 26.3067 20.1802 26.1763 20.0469L25.1802 19.0801ZM25.1802 28.4076C25.1149 28.3421 25.0373 28.2901 24.9518 28.2546C24.8664 28.2191 24.7747 28.2008 24.6822 28.2008C24.5897 28.2008 24.498 28.2191 24.4126 28.2546C24.3271 28.2901 24.2495 28.3421 24.1841 28.4076L20.4529 32.1412L19.1228 30.8463C19.0575 30.7807 18.9799 30.7287 18.8944 30.6932C18.8089 30.6578 18.7173 30.6395 18.6248 30.6395C18.5322 30.6395 18.4406 30.6578 18.3551 30.6932C18.2697 30.7287 18.192 30.7807 18.1267 30.8463L17.2068 31.7656C17.1413 31.8309 17.0892 31.9086 17.0538 31.994C17.0183 32.0795 17 32.1711 17 32.2637C17 32.3562 17.0183 32.4478 17.0538 32.5333C17.0892 32.6188 17.1413 32.6964 17.2068 32.7617L19.9882 35.5449C20.1273 35.6772 20.3119 35.7509 20.5039 35.7509C20.6958 35.7509 20.8804 35.6772 21.0195 35.5449L21.9394 34.6256L26.1699 30.3939C26.3012 30.263 26.3754 30.0854 26.3764 29.8999C26.3774 29.7144 26.3051 29.5361 26.1752 29.4037L25.1802 28.4076ZM20.75 38.5625C19.1978 38.5625 17.9029 39.8223 17.9029 41.375C17.9029 42.9277 19.199 44.1875 20.75 44.1875C21.4959 44.1875 22.2113 43.8912 22.7387 43.3637C23.2662 42.8363 23.5625 42.1209 23.5625 41.375C23.5625 40.6291 23.2662 39.9137 22.7387 39.3863C22.2113 38.8588 21.4959 38.5625 20.75 38.5625ZM46.0625 39.5H29.1875C28.9388 39.5 28.7004 39.5988 28.5246 39.7746C28.3487 39.9504 28.25 40.1889 28.25 40.4375V42.3125C28.25 42.5611 28.3487 42.7996 28.5246 42.9754C28.7004 43.1512 28.9388 43.25 29.1875 43.25H46.0625C46.3111 43.25 46.5496 43.1512 46.7254 42.9754C46.9012 42.7996 47 42.5611 47 42.3125V40.4375C47 40.1889 46.9012 39.9504 46.7254 39.7746C46.5496 39.5988 46.3111 39.5 46.0625 39.5ZM46.0625 20.75H29.1875C28.9388 20.75 28.7004 20.8488 28.5246 21.0246C28.3487 21.2004 28.25 21.4389 28.25 21.6875V23.5625C28.25 23.8111 28.3487 24.0496 28.5246 24.2254C28.7004 24.4012 28.9388 24.5 29.1875 24.5H46.0625C46.3111 24.5 46.5496 24.4012 46.7254 24.2254C46.9012 24.0496 47 23.8111 47 23.5625V21.6875C47 21.4389 46.9012 21.2004 46.7254 21.0246C46.5496 20.8488 46.3111 20.75 46.0625 20.75ZM46.0625 30.125H29.1875C28.9388 30.125 28.7004 30.2238 28.5246 30.3996C28.3487 30.5754 28.25 30.8139 28.25 31.0625V32.9375C28.25 33.1861 28.3487 33.4246 28.5246 33.6004C28.7004 33.7762 28.9388 33.875 29.1875 33.875H46.0625C46.3111 33.875 46.5496 33.7762 46.7254 33.6004C46.9012 33.4246 47 33.1861 47 32.9375V31.0625C47 30.8139 46.9012 30.5754 46.7254 30.3996C46.5496 30.2238 46.3111 30.125 46.0625 30.125Z" fill="#00686b"/>
</svg>
